<svg width="16" height="16" viewBox="0 0 16 16" fill="none" xmlns="http://www.w3.org/2000/svg">
<rect width="16" height="16" fill="black"/>
<g clip-path="url(#clip0_171_419)">
<path d="M10.9757 7.06074C11.2837 7.06159 11.5888 7.00133 11.8733 6.88345C12.1578 6.76558 12.4161 6.59242 12.6333 6.37402L14.8892 4.11963C15.0676 3.94121 15.084 3.65088 14.9141 3.46367C14.8714 3.41664 14.8196 3.37876 14.7619 3.35234C14.7042 3.32592 14.6416 3.3115 14.5782 3.30997C14.5147 3.30844 14.4516 3.31981 14.3926 3.34341C14.3337 3.36702 14.2801 3.40235 14.2352 3.44726L12.2246 5.45644C12.1571 5.52387 12.0656 5.56175 11.9702 5.56175C11.8747 5.56175 11.7832 5.52387 11.7157 5.45644C11.5754 5.31641 11.583 5.07969 11.723 4.93965L13.7249 2.93779C13.7698 2.89292 13.8051 2.8394 13.8286 2.78048C13.8522 2.72156 13.8636 2.65846 13.862 2.59502C13.8605 2.53158 13.8461 2.46911 13.8197 2.4114C13.7933 2.35368 13.7555 2.30193 13.7085 2.25928C13.6237 2.18233 13.5131 2.13999 13.3985 2.14062C13.2687 2.14071 13.1443 2.19235 13.0525 2.28418L11.0524 4.28398C10.9849 4.35141 10.8934 4.38929 10.798 4.38929C10.7026 4.38929 10.6111 4.35141 10.5435 4.28398C10.4035 4.14394 10.4108 3.90723 10.5509 3.76719L12.5527 1.76592C12.5976 1.72104 12.6329 1.66752 12.6565 1.6086C12.68 1.54968 12.6914 1.48659 12.6899 1.42315C12.6883 1.3597 12.6739 1.29723 12.6475 1.23952C12.6211 1.18181 12.5833 1.13006 12.5363 1.0874C12.4515 1.01046 12.3409 0.968119 12.2264 0.968749C12.0966 0.968903 11.9721 1.02053 11.8804 1.1123L9.62597 3.3667C9.40755 3.5839 9.23439 3.84227 9.11651 4.12685C8.99863 4.41144 8.93838 4.71658 8.93925 5.02461V5.26572C8.9393 5.32737 8.92719 5.38842 8.90361 5.44537C8.88003 5.50233 8.84545 5.55408 8.80185 5.59766L7.75859 6.64121C7.74771 6.65211 7.73478 6.66075 7.72055 6.66665C7.70633 6.67254 7.69108 6.67558 7.67568 6.67558C7.66028 6.67558 7.64503 6.67254 7.6308 6.66665C7.61658 6.66075 7.60365 6.65211 7.59277 6.64121L2.51621 1.56435C2.42859 1.47664 2.30979 1.4272 2.18581 1.42687C2.06183 1.42655 1.94277 1.47535 1.85468 1.5626C1.41083 2.00234 1.17382 2.62314 1.17382 3.35762C1.17089 4.57051 1.80839 5.96504 2.83759 6.99277L5.34101 9.49619C5.69682 9.85128 6.17895 10.0507 6.68164 10.0508C6.84189 10.0508 7.00149 10.0304 7.15654 9.98984C7.19547 9.97965 7.23553 9.97443 7.27578 9.97432C7.39345 9.97433 7.50678 10.0188 7.59306 10.0988L7.92675 10.407C8.01282 10.495 8.06117 10.613 8.06152 10.736V10.8983C8.06066 11.2673 8.20567 11.6217 8.46494 11.8842L11.1031 14.5669L11.1058 14.5698C11.3986 14.8626 11.7957 15.0271 12.2098 15.027C12.6238 15.027 13.0209 14.8625 13.3137 14.5697C13.6065 14.2769 13.771 13.8797 13.7709 13.4657C13.7709 13.0516 13.6064 12.6545 13.3136 12.3617L9.35908 8.40723C9.34818 8.39634 9.33954 8.38342 9.33364 8.36919C9.32774 8.35497 9.32471 8.33972 9.32471 8.32432C9.32471 8.30892 9.32774 8.29367 9.33364 8.27944C9.33954 8.26521 9.34818 8.25229 9.35908 8.24141L10.4023 7.19814C10.4459 7.15458 10.4976 7.12001 10.5545 7.09644C10.6114 7.07286 10.6724 7.06073 10.734 7.06074H10.9757Z" fill="#FAFAFA"/>
<path d="M6.68164 10.9883C5.93115 10.9867 5.21154 10.6893 4.6789 10.1606L4.27285 9.75458C4.22891 9.71075 4.16938 9.68614 4.10732 9.68614C4.04526 9.68614 3.98573 9.71075 3.94179 9.75458L1.45156 12.2319C1.00771 12.6758 0.849212 13.3291 1.06894 13.9689C1.08124 14.005 1.09582 14.0402 1.11259 14.0744C1.4082 14.6797 1.98183 15.0312 2.60937 15.0312C2.82518 15.0318 3.03895 14.9895 3.2383 14.9068C3.43765 14.8241 3.61861 14.7027 3.7707 14.5496L7.09179 11.2127C7.10577 11.1984 7.11647 11.1813 7.12315 11.1625C7.12983 11.1436 7.13233 11.1236 7.13046 11.1037V11.0961C7.12916 11.0778 7.12417 11.06 7.1158 11.0437C7.10742 11.0274 7.09584 11.013 7.08174 11.0013C7.06764 10.9896 7.05132 10.9809 7.03376 10.9757C7.01621 10.9705 6.99778 10.9689 6.97958 10.971C6.88064 10.982 6.78119 10.9877 6.68164 10.9883Z" fill="#FAFAFA"/>
</g>
<defs>
<clipPath id="clip0_171_419">
<rect width="15" height="15" fill="white" transform="translate(0.5 0.5)"/>
</clipPath>
</defs>
</svg>
